<svg id="visual" viewBox="0 0 900 450" width="900" height="450" xmlns="http://www.w3.org/2000/svg" xmlns:xlink="http://www.w3.org/1999/xlink" version="1.1"><path d="M0 240L30 246.2C60 252.3 120 264.7 180 273.7C240 282.7 300 288.3 360 285C420 281.7 480 269.3 540 254.5C600 239.7 660 222.3 720 235.7C780 249 840 293 870 315L900 337L900 0L870 0C840 0 780 0 720 0C660 0 600 0 540 0C480 0 420 0 360 0C300 0 240 0 180 0C120 0 60 0 30 0L0 0Z" fill="#ad63e93b"></path><path d="M0 112L30 128.5C60 145 120 178 180 185.8C240 193.7 300 176.3 360 167C420 157.7 480 156.3 540 148C600 139.7 660 124.3 720 127.3C780 130.3 840 151.7 870 162.3L900 173L900 0L870 0C840 0 780 0 720 0C660 0 600 0 540 0C480 0 420 0 360 0C300 0 240 0 180 0C120 0 60 0 30 0L0 0Z" fill="#ad63e9"></path></svg>