<svg xmlns="http://www.w3.org/2000/svg" version="1.1" xmlns:xlink="http://www.w3.org/1999/xlink" width="121" height="121"><svg xmlns="http://www.w3.org/2000/svg" xmlns:xlink="http://www.w3.org/1999/xlink" viewBox="0 0 121 121">
  <defs>
    <style>
      .cls-1 {
        fill: #fff;
      }

      .cls-1,
      .cls-2 {
        stroke: #1a1a1a;
        stroke-miterlimit: 10;
      }

      .cls-2 {
        stroke-width: 0;
        fill: #1a1a1a;
      }

      .cls-3 {
        fill: #fff;
      }

      .cls-4 {
        fill: #7420bb;
      }

      .cls-5 {
        fill: url(#Degradado_sin_nombre_3);
      }
    </style>
  </defs>
  <title>LogoCtrlDev</title>
  <g id="SvgjsG1152" data-name="Capa 2" transform="translate(0, -50)">
    <g id="SvgjsG1151">
      <path class="cls-1" d="M19.25,99.85,1.11,132.48l.35-.65a6.52,6.52,0,0,0,4,9.71l69.79,19A6.9,6.9,0,0,0,82.44,158l36.47-47a6.68,6.68,0,0,0,.43-7.77h0l-18.22-23.9"></path>
      <path class="cls-1" d="M71.26,118.76,22.63,105.44a4.46,4.46,0,0,1-2.42-7.22L45.24,69A4.85,4.85,0,0,1,50,67.39L99,78.25a4.36,4.36,0,0,1,2.37,7l-25.1,31.81A4.83,4.83,0,0,1,71.26,118.76Z"></path>
      <path class="cls-1" d="M73.61,118.78,79,160.43Z"></path>
      <path class="cls-2" d="M50.44,87.65A15,15,0,0,1,45.6,87c-4.67-1.4-6.57-4.79-3.54-9.24a13,13,0,0,1,14.38-4.82,8.58,8.58,0,0,1,3.74,1.89l-1.7,1.36a7.47,7.47,0,0,0-3.12-1.65,9.65,9.65,0,0,0-10.93,3.85c-2.32,3.33-1.42,6.12,2.64,7.33a12.21,12.21,0,0,0,3.93.52Z"></path>
      <path class="cls-2" d="M65.22,77.1,62.92,80l3.28,1-1.11,1.38-3.26-1-4.1,5.23c-.92,1.16-1,1.94.22,2.31a7.09,7.09,0,0,0,1.36.27L58.4,90.5a7.34,7.34,0,0,1-2.11-.35c-1-.31-1.64-.8-1.81-1.41s.18-1.58,1-2.69l4.09-5.29-1.93-.57,1-1.39,2,.57,1.89-2.44Z"></path>
      <path class="cls-2" d="M66.26,84.84c.95-1.15,1.74-2.16,2.42-3.11l2,.6-1.53,2,.1,0a6.63,6.63,0,0,1,5.32-1.13,2.4,2.4,0,0,1,.6.26l-1.45,1.69a3.46,3.46,0,0,0-.73-.29,5.49,5.49,0,0,0-5,1.36,8.19,8.19,0,0,0-.78.78l-4.14,5L61,91.31Z"></path>
      <path class="cls-2" d="M81.57,79.59l2.37.7L71.42,94.44l-2.2-.66Z"></path>
    </g>
  </g>
</svg><style>@media (prefers-color-scheme: light) { :root { filter: none; } }
@media (prefers-color-scheme: dark) { :root { filter: none; } }
</style></svg>