<svg id="visual" viewBox="0 0 600 50" width="600" height="450" xmlns="http://www.w3.org/2000/svg" xmlns:xlink="http://www.w3.org/1999/xlink" version="1.1">
  <g transform="translate(300, 0)">
    <path d="M114.6 -180.8C157.2 -173.9 206.3 -160.7 235.8 -129.5C265.3 -98.3 275.2 -49.2 270.1 -2.9C265.1 43.3 245.1 86.7 214.6 116.1C184.1 145.6 143.1 161.1 105.5 180.3C68 199.4 34 222.2 -0.7 223.4C-35.3 224.5 -70.7 204.1 -114 188.2C-157.3 172.4 -208.5 161.2 -240.5 130.6C-272.5 100 -285.3 50 -270.7 8.4C-256.1 -33.2 -214.2 -66.3 -180.2 -93.4C-146.1 -120.5 -119.9 -141.4 -91.2 -156.3C-62.5 -171.3 -31.3 -180.1 2.4 -184.2C36 -188.4 72 -187.7 114.6 -180.8" fill="#ffffff"></path>
  </g>
</svg>