<svg transform="scale(1)" version="1.1" id="wFBfACoO2Z" xmlns="http://www.w3.org/2000/svg" xmlns:xlink="http://www.w3.org/1999/xlink" x="0px" y="0px" viewBox="0 0 500 500" xml:space="preserve" class="pbimage_pbimage__wrapper__image__0LEis false">
  <title>Computer</title>
  <style type="text/css">
    .st0 {
      fill: #2d2d2d;
    }

    .st1 {
      fill: url(#SVGID_1_-wFBfACoO2Z);
    }

    .st2 {
      fill: #f4b17d;
    }

    .st3 {
      fill: #ef8648;
    }

    .st4 {
      fill: #193A42;
    }

    .st5 {
      fill: #00d390;
    }

    .st6 {
      fill: url(#SVGID_00000086688478246694474120000005532763699692504195_-wFBfACoO2Z);
    }

    .st7 {
      fill: #ADCEE1;
    }

    .st8 {
      fill: #88D3D8;
    }

    .st9 {
      fill: #F2F2F2;
    }

    .st10 {
      fill: #00bafe;
    }

    .st11 {
      opacity: 0.1;
      fill: #193A42;
      enable-background: new;
    }

    .st12 {
      fill: none;
    }

    .st11 {
      fill: #193A42;
    }

    .st10 {
      fill: #00bafe;
    }

    .st9 {
      fill: #F2F2F2;
    }

    .st8 {
      fill: #88D3D8;
    }

    .st7 {
      fill: #ADCEE1;
    }

    .st5 {
      fill: #00d390;
    }

    .st4 {
      fill: #000000;
    }

    .st3 {
      fill: #ef8648;
    }

    .st2 {
      fill: #f4b17d;
    }

    .st0 {
      fill: #232323;
    }
  </style>
  <path class="st0" id="field" d="M258.2,404.8L478.6,281c5.1-2.9,6.8-9.4,3.9-14.4c-0.9-1.5-2.1-2.8-3.5-3.7L265.3,130.5
	c-3.3-2-7.5-2.1-10.8-0.2L21.2,265.7c-5,3-6.7,9.5-3.7,14.5c0.9,1.5,2.2,2.8,3.7,3.7l208,120.7C238.2,409.7,249.2,409.8,258.2,404.8
	z"></path>
  <g id="plant">
    <linearGradient id="SVGID_1_-wFBfACoO2Z" gradientUnits="userSpaceOnUse" x1="307.17" y1="-939.9269" x2="283.7599" y2="-905.4568" gradientTransform="matrix(1 0 0 1 0 1140.8899)">
      <stop offset="0" style="stop-color: rgba(0, 0, 0, .6);"></stop>
      <stop offset="1" style="stop-color: rgba(0, 0, 0, 0)"></stop>
    </linearGradient>
    <path class="st1" d="M263.6,228.1c-0.3-0.2-1.9-1.3-2.1-1.5l44.5-27.5l22.9,11.5l-47.2,28.4C269,230.6,276.1,236.9,263.6,228.1z"></path>
    <polyline class="st2" points="300.5,189.1 300.5,207.3 329.9,207.3 329.9,189.1 	" fill="#f4b17d"></polyline>
    <ellipse class="st3" cx="315.2" cy="189.1" rx="14.7" ry="7.2" fill="#ef8648"></ellipse>
    <ellipse class="st2" cx="315.2" cy="208" rx="14.7" ry="7.2" fill="#f4b17d"></ellipse>
    <path class="st4" d="M331.6,146.9c-3.1-1.3-7.4-5.5-11.2-5.4c-1.2,3.6-2,7.4-2.3,11.2c-0.7,6.2-0.9,12.4-0.4,18.6
		c0.1,1.4,0.2,2.8,0.4,4.1c0,0.4,0.1,0.8,0.3,1.2V191c0,0.3,0.3,0.4,0.5,0.4c0.2,0,0.4-0.2,0.4-0.4v-13.8c1.5-0.5,2.9-1.1,4.2-1.9
		c2.8-1.7,4.8-4.4,5.9-7.4c2.4-6.6,0.9-14,3.1-20.5L331.6,146.9z" fill="#000000"></path>
    <path class="st5" d="M325.3,136.1c-1.7,1-3.2,2.5-4.1,4.3c-0.3,0.4-0.5,0.9-0.7,1.3l-0.1,0.3l0,0c-0.3,0.7-0.5,1.5-0.7,2.3
		c0.3-0.6,0.9-1,1.6-1.2c0.8-0.3,1.6-0.4,2.5-0.2c0.8,0.3,1.6,0.7,2.2,1.2c1,0.6,2,1.3,3.1,2c4.9,3.1,11.4,3.4,15.1-1.1
		c0-0.2,0.1-0.4,0.1-0.5C344.7,141.2,336,129.8,325.3,136.1z" fill="#00d390"></path>
    <path class="st4" d="M341.9,146.8l0.6-0.4c0-0.1,0-0.3-0.1-0.3c-2.9-3-6.1-6-10.1-7.5c-2.9-1.1-6-1.4-9-0.9
		c-0.3,0.4-0.6,0.8-0.9,1.2c3.5-0.9,7.1-0.6,10.4,0.9c3.5,1.7,6.5,4.1,9,7L341.9,146.8z" fill="#000000"></path>
    <path class="st4" d="M292.6,153.4c-4.3,2.3-6.9,6.9-6.6,11.8c0.3,8.7,14.6,0.2,18.4-7.1s4.4,3.1,4.4,3.1" fill="#000000"></path>
    <path class="st5" d="M305.4,150.3c-2.7,0-5.4,0.3-7.9,1.1c-1.7,0.4-3.4,1.1-4.9,1.9c0.9,0.6,1.8,1.1,2.9,1.5
		c1.9,0.5,3.5,1.7,4.6,3.3c0.2,0.4,0.4,0.9,0.6,1.3c0.9,2.9,0.1,6.3,1.3,9.2s3.6,5.4,7,5.6c4,0.2,5.9-3.6,6.6-7s1.9-7.9,0.6-11.4
		C314.6,152,309.2,150.5,305.4,150.3z" fill="#00d390"></path>
    <path class="st4" d="M310.7,163.9c-1.7-5.5-5.3-10.6-10.5-13.1H300l-0.2,0.1l-1,0.2c6.1,2.3,9.9,8.3,11.5,14.4
		c2,7.9,1.3,16.4,1.3,24.4c0,0.2,0.3,0.4,0.5,0.4c0.2,0,0.3-0.2,0.4-0.4C312.5,181.4,313.3,172.2,310.7,163.9z" fill="#000000"></path>
  </g>
  <g id="macbook">
    <linearGradient id="SVGID_00000160905158131147858620000010106411562172097941_-wFBfACoO2Z" gradientUnits="userSpaceOnUse" x1="184.5403" y1="-827.5898" x2="154.3303" y2="-783.0898" gradientTransform="matrix(1 0 0 1 0 1140.8899)">
      <stop offset="0" style="stop-color: rgba(0, 0, 0, .6);"></stop>
      <stop offset="1" style="stop-color: rgba(0, 0, 0, 0);"></stop>
    </linearGradient>
    <path style="fill: url(&quot;#SVGID_00000160905158131147858620000010106411562172097941_-wFBfACoO2Z&quot;);" d="M85.5,319.3c-0.2-0.2-0.5-0.4-0.8-0.5
		l43.2-28.4l125.5,63.2l-55.3,33C185.4,378,98,328,85.5,319.3z"></path>
    <polyline class="st7" points="371.3,279.3 371.3,283.9 369,286.7 	"></polyline>
    <path class="st8" d="M280.4,224.3l88.4,54.7c2.6,1.6,3.4,5,1.8,7.5c0,0,0,0,0,0c-0.5,0.8-1.2,1.4-1.9,1.9l-134,75.9
		c-3.8,2.2-8.5,2.1-12.3-0.1l-87.9-51.6c-6.4-5.3-5.9-15.1,0-15.5l133.2-72.8C271.6,221.9,276.5,221.9,280.4,224.3z"></path>
    <path class="st9" d="M280.4,220.5l88.4,54.7c2.6,1.6,3.4,5,1.8,7.5c0,0,0,0,0,0c-0.5,0.8-1.2,1.4-1.9,1.9l-134,75.8
		c-3.8,2.1-8.5,2.1-12.3-0.1l-87.9-51.6c-3.3-1.9-4.4-6-2.5-9.3c0.6-1,1.5-1.9,2.5-2.5l133.2-76.6
		C271.6,218,276.5,218.1,280.4,220.5z"></path>
    <path class="st10" d="M276.8,213c0,0-36.7-118.3-36.4-118.3s-1.1-5.3-7.7-2.3L92,175.2c0,0-6.8,2.8-5.5,9.1s35.8,115.8,35.8,115.8
		c1.5,2.1,4.1,3,6.6,2.3c4.3-1.3,144.6-82.8,144.6-82.8C276.2,218.6,277.6,215.7,276.8,213z"></path>
    <polygon class="st4" points="238,103.3 94,187.3 123.8,287.6 269.8,206.1 	"></polygon>
    <path class="st10" d="M285.8,233.1l32.3,20.1c1.8,1.1,2.4,3.5,1.3,5.4c0,0,0,0,0,0c-0.3,0.6-0.8,1-1.4,1.3l-115.9,66
		c-3.5,2-7.9,2-11.4,0c-7.4-4.3-20.3-12.2-28.1-17c-2.2-1.4-2.9-4.3-1.6-6.5c0.4-0.7,1-1.2,1.7-1.6c23.4-13.6,99.9-58.1,116.6-67.8
		C281.4,231.7,283.9,231.8,285.8,233.1z"></path>
    <path class="st10" d="M284.1,287.6l-40.5,22.8c-1.9,1.1-2.6,3.6-1.5,5.5c0.4,0.6,0.9,1.1,1.5,1.5l23.8,13.9c1.7,1,3.7,1,5.4,0
		l41.4-23.6c1.6-0.9,2.2-3,1.3-4.6c0,0,0,0,0,0c-0.3-0.5-0.7-1-1.2-1.2l-24.8-14.2C287.7,286.7,285.7,286.7,284.1,287.6z"></path>
    <path class="st11" d="M285.8,233.1l32.3,20.1c1.8,1.1,2.4,3.5,1.3,5.4c0,0,0,0,0,0c-0.3,0.6-0.8,1-1.4,1.3l-115.9,66
		c-3.5,2-7.9,2-11.4,0c-7.4-4.3-20.3-12.2-28.1-17c-2.2-1.4-2.9-4.3-1.6-6.5c0.4-0.7,1-1.2,1.7-1.6c23.4-13.6,99.9-58.1,116.6-67.8
		C281.4,231.7,283.9,231.8,285.8,233.1z"></path>
    <path class="st11" d="M284.1,287.6l-40.5,22.8c-1.9,1.1-2.6,3.6-1.5,5.5c0.4,0.6,0.9,1.1,1.5,1.5l23.8,13.9c1.7,1,3.7,1,5.4,0
		l41.4-23.6c1.6-0.9,2.2-3,1.3-4.6c0,0,0,0,0,0c-0.3-0.5-0.7-1-1.2-1.2l-24.8-14.2C287.7,286.7,285.7,286.7,284.1,287.6z"></path>
    <line class="st12" x1="172.9" y1="223.9" x2="207.9" y2="203.8"></line>

  </g>
</svg>